<?xml version="1.0" standalone="no"?>
<!DOCTYPE svg PUBLIC "-//W3C//DTD SVG 20010904//EN"
 "http://www.w3.org/TR/2001/REC-SVG-20010904/DTD/svg10.dtd">
<svg version="1.0" xmlns="http://www.w3.org/2000/svg"
 width="800.000000pt" height="800.000000pt" viewBox="0 0 800.000000 800.000000"
 preserveAspectRatio="xMidYMid meet">
<metadata>
Created by potrace 1.11, written by Peter Selinger 2001-2013
</metadata>
<g transform="translate(0.000000,800.000000) scale(0.100000,-0.100000)"
fill="#000000" stroke="none">
<path d="M503 6488 c-1 -37 1 -68 5 -69 4 -1 66 -2 137 -4 191 -4 250 -16 358
-72 87 -46 161 -125 182 -196 8 -28 18 -87 23 -132 4 -44 7 -951 7 -2015 l0
-1935 -23 -70 c-39 -114 -74 -177 -133 -236 -99 -101 -267 -167 -442 -174 -50
-2 -97 -4 -104 -4 -7 -1 -11 -25 -10 -71 l0 -70 876 0 876 0 0 64 c0 35 -3 67
-7 71 -3 4 -39 9 -80 11 -133 7 -247 28 -320 58 -21 9 -40 16 -43 16 -11 0
-93 64 -142 111 -55 54 -116 158 -133 230 -6 24 -13 118 -16 209 -8 212 -11
3840 -4 3840 3 0 46 -93 95 -207 49 -115 99 -230 111 -258 23 -54 204 -474
451 -1050 85 -198 161 -373 168 -390 7 -16 34 -79 60 -140 26 -60 53 -123 61
-140 7 -16 77 -178 154 -360 281 -655 658 -1531 678 -1575 11 -25 62 -144 114
-265 l94 -220 49 0 48 0 34 80 c19 44 45 109 60 145 14 36 36 89 50 119 13 30
49 115 79 189 31 74 60 142 64 151 5 9 109 255 231 546 121 292 227 544 234
560 16 34 208 493 264 630 21 50 45 106 53 125 9 19 39 89 66 155 171 410 244
582 252 600 16 34 280 665 280 670 0 2 11 28 24 57 14 29 55 125 91 213 37 88
72 174 80 190 7 17 30 71 50 120 21 50 39 92 41 95 8 8 -2 -4094 -10 -4135
-22 -115 -52 -179 -117 -244 -85 -85 -205 -121 -419 -126 -85 -2 -158 -4 -162
-5 -5 0 -8 -31 -8 -70 l0 -70 1335 0 c1061 0 1335 3 1336 13 2 30 -1 120 -4
124 -3 2 -71 5 -153 7 -218 5 -334 42 -439 138 -79 72 -99 123 -112 283 -10
117 -10 3885 -1 3990 10 103 19 139 51 200 34 64 64 97 124 135 96 61 210 84
416 84 106 0 117 2 118 18 1 23 1 60 0 96 l-1 29 -1040 0 -1039 0 -15 -32 c-8
-17 -110 -263 -227 -546 -116 -283 -217 -527 -224 -544 -7 -16 -39 -93 -70
-170 -31 -77 -65 -159 -76 -182 -10 -24 -19 -45 -19 -48 0 -6 -20 -52 -56
-132 -8 -17 -14 -34 -14 -38 0 -4 -7 -21 -14 -38 -8 -18 -63 -149 -121 -292
-59 -143 -116 -279 -126 -302 -10 -23 -19 -46 -19 -51 0 -5 -6 -22 -14 -38 -8
-16 -47 -108 -86 -204 -39 -96 -77 -188 -84 -205 -8 -16 -60 -144 -117 -282
-77 -188 -106 -250 -114 -240 -6 6 -38 75 -70 152 -32 77 -66 158 -76 180 -23
54 -260 609 -349 820 -87 205 -186 435 -211 491 -10 22 -27 63 -38 91 -11 28
-29 70 -40 94 -11 24 -83 195 -161 379 -78 184 -152 359 -166 388 -13 29 -24
55 -24 57 0 2 -11 28 -24 57 -13 29 -67 157 -120 283 -54 127 -108 254 -122
283 -13 29 -24 56 -24 61 0 4 -472 8 -1048 8 l-1048 0 -1 -69z"/>
</g>
</svg>
